<svg xmlns="http://www.w3.org/2000/svg" viewBox="0 0 201.108 201.108">
  <path d="M201.108 142.26l-.072-51.838a9.69 9.69 0 0 0-2.595-7.087 9.887 9.887 0 0 0-7.2-3.116h-1.726c-5.143 0-9.441 3.979-9.787 9.058l-.009.136v1.07a13.137 13.137 0 0 0-6.257-1.579H46.946a10.443 10.443 0 0 0 1.155-4.789 10.436 10.436 0 0 0-3.08-7.423l-14.677-14.66a12.686 12.686 0 0 0-8.879-3.729c-.808-5.336-5.267-9.278-10.663-9.278a10.759 10.759 0 0 0-7.907 3.494 11.088 11.088 0 0 0-2.853 8.433l10.345 81.309h5.096v9.824h8v-9.824H185.957v9.824h8v-9.824h7.151zm-22.421-40.132v.729a5.231 5.231 0 0 1-5.225 5.225H36.535a5.231 5.231 0 0 1-5.225-5.225v-4.362c0-.877.713-1.591 1.59-1.591h140.563a5.23 5.23 0 0 1 5.224 5.224z"/>
</svg>