<svg xmlns="http://www.w3.org/2000/svg" viewBox="0 0 24 24">
  <style>
    .st1{fill:#cce7ff}.st2{fill:none;stroke:#1078ff;stroke-linecap:round;stroke-linejoin:round;stroke-miterlimit:10}
  </style>
  <g id="Duotone">
    <path fill="#fff" d="M16.5 7.5v-7H.5v10h12v13h11v-16z"/>
    <path class="st1" d="M12.5 21.5h11v2h-11zM.5 4V.5H4zM12.5 12.5v-2H4L.5 7v3.5h1v2h1v2h10v-1l11-1.5V7.5zM16.5 4V.5H13z"/>
    <path class="st2" d="M.5 4L4 .5M.5 7L4 10.5M10.5 10.5H.5V.5h16v5M16.5 4L13 .5"/>
    <path class="st2" d="M9.5 3.5h-2l-.5 1 .5 1h2l.5 1-.5 1h-2M8.5 3.5v-1M8.5 8.5v-1"/>
    <g>
      <path class="st2" d="M12.5 7.5h11v16h-11zM12.5 13.5l11-1.5M21.5 15.5h-1M18.5 15.5h-1M15.5 15.5h-1M21.5 17.5h-1M18.5 17.5h-1M15.5 17.5h-1M21.5 19.5h-1M18.5 19.5h-1M15.5 19.5h-1M21.5 21.5h-1M18.5 21.5h-1M15.5 21.5h-1"/>
    </g>
    <path class="st2" d="M1.5 12.5h9M2.5 14.5h8"/>
  </g>
  <path fill="none" d="M0 0h24v24H0z" id="Frames-24px"/>
</svg>