<svg xmlns="http://www.w3.org/2000/svg" viewBox="0 0 24 24"><style>.st2{fill:none;stroke:#1078ff;stroke-linecap:round;stroke-linejoin:round;stroke-miterlimit:10}</style><g id="Duotone"><path fill="#fff" d="M16.5 7.5v-7H.5v10h12v13h11v-16z"/><path d="M12.5 21.5h11v2h-11zM.5 4V.5H4zm12 8.5v-2H4L.5 7v3.5h1v2h1v2h10v-1l11-1.5V7.5zm4-8.5V.5H13z" fill="#cce7ff"/><path class="st2" d="M.5 4L4 .5M.5 7L4 10.5m6.5 0H.5V.5h16v5m0-1.5L13 .5"/><path class="st2" d="M9.5 3.5h-2l-.5 1 .5 1h2l.5 1-.5 1h-2m1-4v-1m0 6v-1M12.5 7.5h11v16h-11zm0 6l11-1.5m-2 3.5h-1m-2 0h-1m-2 0h-1m7 2h-1m-2 0h-1m-2 0h-1m7 2h-1m-2 0h-1m-2 0h-1m7 2h-1m-2 0h-1m-2 0h-1M1.5 12.5h9m-8 2h8"/></g><path fill="none" d="M0 0h24v24H0z" id="Frames-24px"/></svg>
