<svg xmlns="http://www.w3.org/2000/svg" viewBox="0 0 24 24">
  <style>
    .st1{fill:#cce7ff}.st2{fill:none;stroke:#1078ff;stroke-linecap:round;stroke-linejoin:round;stroke-miterlimit:10}
  </style>
  <g id="Duotone">
    <path fill="#fff" d="M18.5 10.5l-1 .8V5.2L10 .5 2.5 5.2v12.3h12.3l3.7 6 4-6.5v-3.5z"/>
    <path class="st1" d="M11.5 8L10 9 8.5 8V6.5l1.5-1 1.5 1z"/>
    <path class="st1" d="M10 .5L2.5 5.2v3L10 3.5l7.5 4.7v-3zM18.5 10.5v3l2 1v2l-2 1v6l4-6.5v-3.5z"/>
    <path class="st2" d="M2.5 5.2v12.3h10" id="XMLID_52_"/>
    <path class="st2" d="M17.5 5.2v3.3" id="XMLID_51_"/>
    <path class="st2" d="M19.5 6.5L10 .5l-9.5 6"/>
    <path class="st2" d="M11.5 8L10 9 8.5 8V6.5l1.5-1 1.5 1zM18.5 23.5l4-6.5v-3.5l-4-3-4 3V17z"/>
    <path class="st2" d="M20.5 16.5l-2 1-2-1v-2l2-1 2 1z"/>
  </g>
  <path fill="none" d="M0 0h24v24H0z" id="Frames-24px"/>
</svg>