<svg xmlns="http://www.w3.org/2000/svg" viewBox="0 0 512 512">
  <path d="M496.327 206.355h-22.56V93.637c0-42.989-34.886-77.963-77.766-77.963h-14.075c-37.803 0-69.545 27.412-76.382 63.443-27.458 6.492-47.962 31.244-47.962 60.721 0 8.656 7.018 15.673 15.673 15.673h93.155c8.656 0 15.673-7.018 15.673-15.673 0-28.239-18.818-52.145-44.54-59.811 5.836-19.066 23.572-33.006 44.383-33.006h14.075c25.596 0 46.42 20.913 46.42 46.616v112.718H15.673C7.018 206.355 0 213.373 0 222.029v56.986c0 8.656 7.018 15.673 15.673 15.673h480.653c8.656 0 15.673-7.018 15.673-15.673v-56.986c.001-8.656-7.017-15.674-15.672-15.674zM473.766 366.787v-40.753H38.234v40.753c0 34.695 21.848 64.37 52.502 76.029l-26.688 26.772c-6.112 6.13-6.096 16.055.034 22.165 6.13 6.111 16.055 6.096 22.165-.036l43.472-43.61h252.56l43.472 43.61c6.113 6.132 16.037 6.144 22.165.036 6.13-6.112 6.146-16.035.034-22.165l-26.688-26.772c30.656-11.66 52.504-41.335 52.504-76.029z"/>
</svg>