<svg xmlns="http://www.w3.org/2000/svg" viewBox="0 0 24 24"><style>.st2{fill:none;stroke:#1078ff;stroke-linecap:round;stroke-linejoin:round;stroke-miterlimit:10}</style><g id="Duotone"><path fill="#fff" d="M20.5 5.5h-4V3.7l-5-3.2-5 3.2v1.8h-4l-2 18h22z"/><path fill="#cce7ff" d="M11.5.5V4l2 1.3v2l-2 1.2v7l5-7.5V3.7z"/><path class="st2" d="M18.5 5.5h2l2 18H.5l2-18h2m-3.3 12h20.6m-4.3-7h3.6m-19.2 0h3.6m.5 13L6.7 13M17 23.5L16.3 13"/><path class="st2" d="M11.5 15.5l5-7.5V3.7l-5-3.2-5 3.2V8z"/><path class="st2" d="M13.5 7.3l-2 1.2-2-1.2v-2l2-1.3 2 1.3z"/></g><path fill="none" d="M0 0h24v24H0z" id="Frames-24px"/></svg>
